<svg width="512" height="512" viewBox="0 0 512 512" fill="none" xmlns="http://www.w3.org/2000/svg">
  <defs>
    <linearGradient id="bg12" x1="0" y1="0" x2="512" y2="512" gradientUnits="userSpaceOnUse">
      <stop offset="0%" stop-color="#0F0B2E"/>
      <stop offset="100%" stop-color="#1C1650"/>
    </linearGradient>
    <radialGradient id="glow12" cx="256" cy="230" r="180" gradientUnits="userSpaceOnUse">
      <stop offset="0%" stop-color="#7C3AED" stop-opacity="0.15"/>
      <stop offset="100%" stop-color="#7C3AED" stop-opacity="0"/>
    </radialGradient>
    <linearGradient id="wire12" x1="150" y1="120" x2="360" y2="380" gradientUnits="userSpaceOnUse">
      <stop offset="0%" stop-color="#60A5FA"/>
      <stop offset="50%" stop-color="#A78BFA"/>
      <stop offset="100%" stop-color="#F472B6"/>
    </linearGradient>
  </defs>
  <!-- Dark premium background -->
  <rect width="512" height="512" rx="96" fill="url(#bg12)"/>
  <!-- Ambient glow -->
  <circle cx="256" cy="230" r="180" fill="url(#glow12)"/>

  <!-- Brain outline — geometric/angular style, more digital -->
  <!-- Left hemisphere -->
  <path d="M250 90 C215 92, 170 108, 148 148 C126 188, 122 218, 128 248 C116 258, 108 280, 112 308 C116 336, 132 352, 150 360 C150 382, 168 398, 196 402 C214 406, 236 404, 250 398"
        stroke="#6366F1" stroke-width="3.5" fill="none" stroke-linejoin="round" opacity="0.7"/>
  <!-- Right hemisphere -->
  <path d="M262 90 C297 92, 342 108, 364 148 C386 188, 390 218, 384 248 C396 258, 404 280, 400 308 C396 336, 380 352, 362 360 C362 382, 344 398, 316 402 C298 406, 276 404, 262 398"
        stroke="#6366F1" stroke-width="3.5" fill="none" stroke-linejoin="round" opacity="0.7"/>

  <!-- INTERNAL NETWORK — dense neural web -->
  <!-- Layer 1: Major connections -->
  <line x1="185" y1="148" x2="230" y2="190" stroke="url(#wire12)" stroke-width="2" opacity="0.7"/>
  <line x1="230" y1="190" x2="256" y2="160" stroke="url(#wire12)" stroke-width="2" opacity="0.6"/>
  <line x1="256" y1="160" x2="290" y2="185" stroke="url(#wire12)" stroke-width="2" opacity="0.7"/>
  <line x1="290" y1="185" x2="335" y2="155" stroke="url(#wire12)" stroke-width="2" opacity="0.6"/>
  <line x1="230" y1="190" x2="200" y2="240" stroke="url(#wire12)" stroke-width="2" opacity="0.6"/>
  <line x1="290" y1="185" x2="320" y2="235" stroke="url(#wire12)" stroke-width="2" opacity="0.6"/>
  <line x1="200" y1="240" x2="256" y2="255" stroke="url(#wire12)" stroke-width="2" opacity="0.7"/>
  <line x1="320" y1="235" x2="256" y2="255" stroke="url(#wire12)" stroke-width="2" opacity="0.7"/>

  <!-- Layer 2: Secondary connections -->
  <line x1="256" y1="255" x2="220" y2="300" stroke="url(#wire12)" stroke-width="1.5" opacity="0.5"/>
  <line x1="256" y1="255" x2="295" y2="295" stroke="url(#wire12)" stroke-width="1.5" opacity="0.5"/>
  <line x1="220" y1="300" x2="256" y2="340" stroke="url(#wire12)" stroke-width="1.5" opacity="0.5"/>
  <line x1="295" y1="295" x2="256" y2="340" stroke="url(#wire12)" stroke-width="1.5" opacity="0.5"/>
  <line x1="200" y1="240" x2="155" y2="270" stroke="url(#wire12)" stroke-width="1.5" opacity="0.4"/>
  <line x1="320" y1="235" x2="365" y2="265" stroke="url(#wire12)" stroke-width="1.5" opacity="0.4"/>
  <line x1="155" y1="270" x2="170" y2="330" stroke="url(#wire12)" stroke-width="1.5" opacity="0.4"/>
  <line x1="365" y1="265" x2="350" y2="325" stroke="url(#wire12)" stroke-width="1.5" opacity="0.4"/>
  <line x1="170" y1="330" x2="220" y2="300" stroke="url(#wire12)" stroke-width="1.5" opacity="0.4"/>
  <line x1="350" y1="325" x2="295" y2="295" stroke="url(#wire12)" stroke-width="1.5" opacity="0.4"/>
  <line x1="256" y1="340" x2="210" y2="370" stroke="url(#wire12)" stroke-width="1.5" opacity="0.4"/>
  <line x1="256" y1="340" x2="305" y2="365" stroke="url(#wire12)" stroke-width="1.5" opacity="0.4"/>

  <!-- Cross connections -->
  <line x1="185" y1="148" x2="200" y2="240" stroke="url(#wire12)" stroke-width="1" opacity="0.3"/>
  <line x1="335" y1="155" x2="320" y2="235" stroke="url(#wire12)" stroke-width="1" opacity="0.3"/>
  <line x1="230" y1="190" x2="295" y2="295" stroke="url(#wire12)" stroke-width="1" opacity="0.2"/>
  <line x1="290" y1="185" x2="220" y2="300" stroke="url(#wire12)" stroke-width="1" opacity="0.2"/>

  <!-- NODES — active neurons, different sizes = hierarchy -->
  <!-- Primary nodes (biggest, brightest) -->
  <circle cx="256" cy="255" r="10" fill="#A78BFA"/>
  <circle cx="256" cy="255" r="20" fill="#A78BFA" opacity="0.1"/>
  <circle cx="256" cy="160" r="8" fill="#818CF8"/>
  <circle cx="256" cy="160" r="16" fill="#818CF8" opacity="0.1"/>
  <circle cx="256" cy="340" r="8" fill="#C084FC"/>
  <circle cx="256" cy="340" r="16" fill="#C084FC" opacity="0.1"/>

  <!-- Secondary nodes -->
  <circle cx="230" cy="190" r="7" fill="#60A5FA"/>
  <circle cx="290" cy="185" r="7" fill="#60A5FA"/>
  <circle cx="200" cy="240" r="6" fill="#818CF8"/>
  <circle cx="320" cy="235" r="6" fill="#818CF8"/>
  <circle cx="220" cy="300" r="6" fill="#A78BFA"/>
  <circle cx="295" cy="295" r="6" fill="#A78BFA"/>

  <!-- Tertiary nodes -->
  <circle cx="185" cy="148" r="5" fill="#60A5FA" opacity="0.8"/>
  <circle cx="335" cy="155" r="5" fill="#60A5FA" opacity="0.8"/>
  <circle cx="155" cy="270" r="4" fill="#818CF8" opacity="0.6"/>
  <circle cx="365" cy="265" r="4" fill="#818CF8" opacity="0.6"/>
  <circle cx="170" cy="330" r="4" fill="#C084FC" opacity="0.6"/>
  <circle cx="350" cy="325" r="4" fill="#C084FC" opacity="0.6"/>
  <circle cx="210" cy="370" r="4" fill="#F472B6" opacity="0.5"/>
  <circle cx="305" cy="365" r="4" fill="#F472B6" opacity="0.5"/>

  <!-- STAFFIX — premium typography -->
  <text x="256" y="455" text-anchor="middle" font-family="'SF Pro Display', 'Inter', system-ui, sans-serif" font-size="38" font-weight="300" letter-spacing="12" fill="white" opacity="0.85">STAFFIX</text>
</svg>