<svg width="512" height="512" viewBox="0 0 512 512" fill="none" xmlns="http://www.w3.org/2000/svg">
  <defs>
    <linearGradient id="bg14" x1="0" y1="0" x2="512" y2="512" gradientUnits="userSpaceOnUse">
      <stop offset="0%" stop-color="#0D0B21"/>
      <stop offset="100%" stop-color="#16103A"/>
    </linearGradient>
    <radialGradient id="coreGlow14" cx="256" cy="240" r="60" gradientUnits="userSpaceOnUse">
      <stop offset="0%" stop-color="#A78BFA" stop-opacity="0.4"/>
      <stop offset="100%" stop-color="#A78BFA" stop-opacity="0"/>
    </radialGradient>
    <radialGradient id="outerGlow14" cx="256" cy="240" r="160" gradientUnits="userSpaceOnUse">
      <stop offset="0%" stop-color="#4F46E5" stop-opacity="0.1"/>
      <stop offset="100%" stop-color="#4F46E5" stop-opacity="0"/>
    </radialGradient>
  </defs>
  <!-- Dark background -->
  <rect width="512" height="512" rx="96" fill="url(#bg14)"/>
  <!-- Outer ambient glow -->
  <circle cx="256" cy="240" r="160" fill="url(#outerGlow14)"/>

  <!-- Brain outline — clean, precise -->
  <path d="M250 85 C212 87, 165 105, 142 148 C119 191, 115 222, 122 255 C108 266, 100 290, 104 320 C108 350, 126 368, 148 376 C148 398, 168 416, 198 420 C220 424, 242 420, 250 412"
        stroke="#818CF8" stroke-width="2.5" fill="none" opacity="0.5"/>
  <path d="M262 85 C300 87, 347 105, 370 148 C393 191, 397 222, 390 255 C404 266, 412 290, 408 320 C404 350, 386 368, 364 376 C364 398, 344 416, 314 420 C292 424, 270 420, 262 412"
        stroke="#818CF8" stroke-width="2.5" fill="none" opacity="0.5"/>

  <!-- Brain folds -->
  <path d="M158 178 C188 195, 222 182, 248 188" stroke="#6366F1" stroke-width="1.5" opacity="0.2" fill="none"/>
  <path d="M264 188 C290 182, 324 195, 354 178" stroke="#6366F1" stroke-width="1.5" opacity="0.2" fill="none"/>
  <path d="M130 258 C165 242, 212 252, 248 246" stroke="#6366F1" stroke-width="1.5" opacity="0.15" fill="none"/>
  <path d="M264 246 C300 252, 347 242, 382 258" stroke="#6366F1" stroke-width="1.5" opacity="0.15" fill="none"/>
  <path d="M152 340 C182 325, 218 335, 248 328" stroke="#6366F1" stroke-width="1.5" opacity="0.15" fill="none"/>
  <path d="M264 328 C294 335, 330 325, 360 340" stroke="#6366F1" stroke-width="1.5" opacity="0.15" fill="none"/>

  <!-- CORE — bright glowing center (the "engine" of intelligence) -->
  <circle cx="256" cy="240" r="60" fill="url(#coreGlow14)"/>
  <circle cx="256" cy="240" r="28" fill="#A78BFA" opacity="0.2"/>
  <circle cx="256" cy="240" r="14" fill="#C4B5FD" opacity="0.5"/>
  <circle cx="256" cy="240" r="6" fill="white" opacity="0.9"/>

  <!-- Energy rays from core to brain edges — processing power radiating outward -->
  <!-- 8 directional rays -->
  <line x1="270" y1="228" x2="340" y2="155" stroke="#A78BFA" stroke-width="1.5" opacity="0.5"/>
  <line x1="270" y1="240" x2="375" y2="240" stroke="#818CF8" stroke-width="1.5" opacity="0.4"/>
  <line x1="270" y1="252" x2="350" y2="330" stroke="#A78BFA" stroke-width="1.5" opacity="0.4"/>
  <line x1="256" y1="254" x2="256" y2="380" stroke="#818CF8" stroke-width="1.5" opacity="0.35"/>
  <line x1="242" y1="252" x2="162" y2="330" stroke="#A78BFA" stroke-width="1.5" opacity="0.4"/>
  <line x1="242" y1="240" x2="137" y2="240" stroke="#818CF8" stroke-width="1.5" opacity="0.4"/>
  <line x1="242" y1="228" x2="172" y2="155" stroke="#A78BFA" stroke-width="1.5" opacity="0.5"/>
  <line x1="256" y1="226" x2="256" y2="120" stroke="#818CF8" stroke-width="1.5" opacity="0.35"/>

  <!-- Ray endpoint nodes -->
  <circle cx="340" cy="155" r="4" fill="#60A5FA" opacity="0.7"/>
  <circle cx="375" cy="240" r="4" fill="#818CF8" opacity="0.6"/>
  <circle cx="350" cy="330" r="4" fill="#A78BFA" opacity="0.6"/>
  <circle cx="256" cy="380" r="4" fill="#C084FC" opacity="0.5"/>
  <circle cx="162" cy="330" r="4" fill="#A78BFA" opacity="0.6"/>
  <circle cx="137" cy="240" r="4" fill="#818CF8" opacity="0.6"/>
  <circle cx="172" cy="155" r="4" fill="#60A5FA" opacity="0.7"/>
  <circle cx="256" cy="120" r="4" fill="#60A5FA" opacity="0.6"/>

  <!-- Orbiting data dots — things being processed -->
  <circle cx="300" cy="185" r="3" fill="#F472B6" opacity="0.6"/>
  <circle cx="320" cy="280" r="2.5" fill="#60A5FA" opacity="0.5"/>
  <circle cx="210" cy="300" r="3" fill="#F472B6" opacity="0.5"/>
  <circle cx="195" cy="185" r="2.5" fill="#60A5FA" opacity="0.6"/>
  <circle cx="280" cy="350" r="2" fill="#C084FC" opacity="0.4"/>
  <circle cx="230" cy="150" r="2" fill="#C084FC" opacity="0.5"/>

  <!-- STAFFIX text -->
  <text x="256" y="465" text-anchor="middle" font-family="'SF Pro Display', 'Inter', system-ui, sans-serif" font-size="34" font-weight="600" letter-spacing="8" fill="white" opacity="0.9">STAFFIX</text>
</svg>