<svg width="512" height="512" viewBox="0 0 512 512" fill="none" xmlns="http://www.w3.org/2000/svg">
  <defs>
    <linearGradient id="bg15" x1="0" y1="0" x2="512" y2="512" gradientUnits="userSpaceOnUse">
      <stop offset="0%" stop-color="#0C0A1D"/>
      <stop offset="100%" stop-color="#1A1438"/>
    </linearGradient>
    <linearGradient id="wire15" x1="130" y1="100" x2="380" y2="380" gradientUnits="userSpaceOnUse">
      <stop offset="0%" stop-color="#60A5FA"/>
      <stop offset="50%" stop-color="#A78BFA"/>
      <stop offset="100%" stop-color="#EC4899"/>
    </linearGradient>
    <radialGradient id="glow15" cx="256" cy="220" r="150" gradientUnits="userSpaceOnUse">
      <stop offset="0%" stop-color="#6366F1" stop-opacity="0.12"/>
      <stop offset="100%" stop-color="#6366F1" stop-opacity="0"/>
    </radialGradient>
  </defs>
  <rect width="512" height="512" rx="96" fill="url(#bg15)"/>
  <circle cx="256" cy="220" r="150" fill="url(#glow15)"/>

  <!-- Original brain shape — scaled to fill nicely, top portion of icon -->
  <g transform="translate(76, 50) scale(15)" fill="none" stroke="#818CF8" stroke-width="1.2" stroke-linecap="round" stroke-linejoin="round" opacity="0.6">
    <path d="M12 18V5"/>
    <path d="M15 13a4.17 4.17 0 0 1-3-4 4.17 4.17 0 0 1-3 4"/>
    <path d="M17.598 6.5A3 3 0 1 0 12 5a3 3 0 1 0-5.598 1.5"/>
    <path d="M17.997 5.125a4 4 0 0 1 2.526 5.77"/>
    <path d="M18 18a4 4 0 0 0 2-7.464"/>
    <path d="M19.967 17.483A4 4 0 1 1 12 18a4 4 0 1 1-7.967-.517"/>
    <path d="M6 18a4 4 0 0 1-2-7.464"/>
    <path d="M6.003 5.125a4 4 0 0 0-2.526 5.77"/>
  </g>

  <!-- Neural network INSIDE the brain shape -->
  <!-- Major connections -->
  <line x1="200" y1="130" x2="240" y2="170" stroke="url(#wire15)" stroke-width="2" opacity="0.7"/>
  <line x1="240" y1="170" x2="256" y2="140" stroke="url(#wire15)" stroke-width="2" opacity="0.6"/>
  <line x1="256" y1="140" x2="290" y2="165" stroke="url(#wire15)" stroke-width="2" opacity="0.7"/>
  <line x1="290" y1="165" x2="320" y2="135" stroke="url(#wire15)" stroke-width="2" opacity="0.6"/>
  <line x1="240" y1="170" x2="210" y2="215" stroke="url(#wire15)" stroke-width="2" opacity="0.6"/>
  <line x1="290" y1="165" x2="310" y2="210" stroke="url(#wire15)" stroke-width="2" opacity="0.6"/>
  <line x1="210" y1="215" x2="256" y2="230" stroke="url(#wire15)" stroke-width="2" opacity="0.7"/>
  <line x1="310" y1="210" x2="256" y2="230" stroke="url(#wire15)" stroke-width="2" opacity="0.7"/>
  <line x1="256" y1="230" x2="230" y2="275" stroke="url(#wire15)" stroke-width="1.5" opacity="0.5"/>
  <line x1="256" y1="230" x2="285" y2="270" stroke="url(#wire15)" stroke-width="1.5" opacity="0.5"/>
  <line x1="230" y1="275" x2="256" y2="310" stroke="url(#wire15)" stroke-width="1.5" opacity="0.5"/>
  <line x1="285" y1="270" x2="256" y2="310" stroke="url(#wire15)" stroke-width="1.5" opacity="0.5"/>
  <line x1="210" y1="215" x2="170" y2="240" stroke="url(#wire15)" stroke-width="1.5" opacity="0.4"/>
  <line x1="310" y1="210" x2="345" y2="235" stroke="url(#wire15)" stroke-width="1.5" opacity="0.4"/>
  <line x1="170" y1="240" x2="185" y2="290" stroke="url(#wire15)" stroke-width="1.5" opacity="0.35"/>
  <line x1="345" y1="235" x2="330" y2="285" stroke="url(#wire15)" stroke-width="1.5" opacity="0.35"/>
  <line x1="185" y1="290" x2="230" y2="275" stroke="url(#wire15)" stroke-width="1.5" opacity="0.35"/>
  <line x1="330" y1="285" x2="285" y2="270" stroke="url(#wire15)" stroke-width="1.5" opacity="0.35"/>
  <!-- Cross-connections -->
  <line x1="240" y1="170" x2="285" y2="270" stroke="url(#wire15)" stroke-width="1" opacity="0.2"/>
  <line x1="290" y1="165" x2="230" y2="275" stroke="url(#wire15)" stroke-width="1" opacity="0.2"/>

  <!-- Nodes — hierarchy -->
  <circle cx="256" cy="230" r="9" fill="#A78BFA"/>
  <circle cx="256" cy="230" r="18" fill="#A78BFA" opacity="0.1"/>
  <circle cx="256" cy="140" r="7" fill="#818CF8"/>
  <circle cx="240" cy="170" r="6" fill="#60A5FA"/>
  <circle cx="290" cy="165" r="6" fill="#60A5FA"/>
  <circle cx="210" cy="215" r="5.5" fill="#818CF8"/>
  <circle cx="310" cy="210" r="5.5" fill="#818CF8"/>
  <circle cx="230" cy="275" r="5" fill="#A78BFA"/>
  <circle cx="285" cy="270" r="5" fill="#A78BFA"/>
  <circle cx="256" cy="310" r="6" fill="#C084FC"/>
  <circle cx="200" cy="130" r="4.5" fill="#60A5FA" opacity="0.8"/>
  <circle cx="320" cy="135" r="4.5" fill="#60A5FA" opacity="0.8"/>
  <circle cx="170" cy="240" r="4" fill="#818CF8" opacity="0.6"/>
  <circle cx="345" cy="235" r="4" fill="#818CF8" opacity="0.6"/>
  <circle cx="185" cy="290" r="3.5" fill="#C084FC" opacity="0.5"/>
  <circle cx="330" cy="285" r="3.5" fill="#C084FC" opacity="0.5"/>

  <!-- Tiny sparks -->
  <circle cx="225" cy="148" r="2" fill="white" opacity="0.5"/>
  <circle cx="300" cy="190" r="1.5" fill="white" opacity="0.4"/>
  <circle cx="200" cy="260" r="2" fill="white" opacity="0.4"/>
  <circle cx="310" cy="255" r="1.5" fill="white" opacity="0.35"/>

  <!-- STAFFIX -->
  <text x="256" y="400" text-anchor="middle" font-family="'SF Pro Display', 'Inter', system-ui, sans-serif" font-size="38" font-weight="300" letter-spacing="12" fill="white" opacity="0.85">STAFFIX</text>
</svg>