<svg width="512" height="512" viewBox="0 0 512 512" fill="none" xmlns="http://www.w3.org/2000/svg">
  <defs>
    <linearGradient id="bg17" x1="0" y1="0" x2="512" y2="512" gradientUnits="userSpaceOnUse">
      <stop offset="0%" stop-color="#0D0B21"/>
      <stop offset="100%" stop-color="#16103A"/>
    </linearGradient>
    <radialGradient id="coreGlow17" cx="256" cy="195" r="70" gradientUnits="userSpaceOnUse">
      <stop offset="0%" stop-color="#A78BFA" stop-opacity="0.45"/>
      <stop offset="100%" stop-color="#A78BFA" stop-opacity="0"/>
    </radialGradient>
    <radialGradient id="outerGlow17" cx="256" cy="195" r="170" gradientUnits="userSpaceOnUse">
      <stop offset="0%" stop-color="#4F46E5" stop-opacity="0.1"/>
      <stop offset="100%" stop-color="#4F46E5" stop-opacity="0"/>
    </radialGradient>
  </defs>
  <rect width="512" height="512" rx="96" fill="url(#bg17)"/>
  <circle cx="256" cy="195" r="170" fill="url(#outerGlow17)"/>

  <!-- Original brain shape -->
  <g transform="translate(76, 30) scale(15)" fill="none" stroke="#818CF8" stroke-width="1.3" stroke-linecap="round" stroke-linejoin="round" opacity="0.5">
    <path d="M12 18V5"/>
    <path d="M15 13a4.17 4.17 0 0 1-3-4 4.17 4.17 0 0 1-3 4"/>
    <path d="M17.598 6.5A3 3 0 1 0 12 5a3 3 0 1 0-5.598 1.5"/>
    <path d="M17.997 5.125a4 4 0 0 1 2.526 5.77"/>
    <path d="M18 18a4 4 0 0 0 2-7.464"/>
    <path d="M19.967 17.483A4 4 0 1 1 12 18a4 4 0 1 1-7.967-.517"/>
    <path d="M6 18a4 4 0 0 1-2-7.464"/>
    <path d="M6.003 5.125a4 4 0 0 0-2.526 5.77"/>
  </g>

  <!-- Glowing core — the "engine" of intelligence -->
  <circle cx="256" cy="195" r="70" fill="url(#coreGlow17)"/>
  <circle cx="256" cy="195" r="32" fill="#A78BFA" opacity="0.18"/>
  <circle cx="256" cy="195" r="16" fill="#C4B5FD" opacity="0.45"/>
  <circle cx="256" cy="195" r="7" fill="white" opacity="0.9"/>

  <!-- Energy rays radiating from core to brain edges -->
  <line x1="270" y1="183" x2="345" y2="110" stroke="#A78BFA" stroke-width="1.8" opacity="0.5"/>
  <line x1="272" y1="195" x2="380" y2="195" stroke="#818CF8" stroke-width="1.8" opacity="0.4"/>
  <line x1="270" y1="207" x2="350" y2="280" stroke="#A78BFA" stroke-width="1.8" opacity="0.4"/>
  <line x1="256" y1="211" x2="256" y2="310" stroke="#818CF8" stroke-width="1.8" opacity="0.35"/>
  <line x1="242" y1="207" x2="162" y2="280" stroke="#A78BFA" stroke-width="1.8" opacity="0.4"/>
  <line x1="240" y1="195" x2="132" y2="195" stroke="#818CF8" stroke-width="1.8" opacity="0.4"/>
  <line x1="242" y1="183" x2="167" y2="110" stroke="#A78BFA" stroke-width="1.8" opacity="0.5"/>
  <line x1="256" y1="179" x2="256" y2="90" stroke="#818CF8" stroke-width="1.8" opacity="0.35"/>

  <!-- Ray endpoint nodes -->
  <circle cx="345" cy="110" r="4.5" fill="#60A5FA" opacity="0.75"/>
  <circle cx="380" cy="195" r="4" fill="#818CF8" opacity="0.6"/>
  <circle cx="350" cy="280" r="4" fill="#A78BFA" opacity="0.6"/>
  <circle cx="256" cy="310" r="4.5" fill="#C084FC" opacity="0.55"/>
  <circle cx="162" cy="280" r="4" fill="#A78BFA" opacity="0.6"/>
  <circle cx="132" cy="195" r="4" fill="#818CF8" opacity="0.6"/>
  <circle cx="167" cy="110" r="4.5" fill="#60A5FA" opacity="0.75"/>
  <circle cx="256" cy="90" r="4" fill="#60A5FA" opacity="0.6"/>

  <!-- Orbiting data dots -->
  <circle cx="305" cy="145" r="3" fill="#F472B6" opacity="0.6"/>
  <circle cx="325" cy="240" r="2.5" fill="#60A5FA" opacity="0.5"/>
  <circle cx="205" cy="255" r="3" fill="#F472B6" opacity="0.5"/>
  <circle cx="190" cy="140" r="2.5" fill="#60A5FA" opacity="0.6"/>
  <circle cx="280" cy="290" r="2" fill="#C084FC" opacity="0.4"/>
  <circle cx="225" cy="110" r="2" fill="#C084FC" opacity="0.5"/>

  <!-- STAFFIX -->
  <text x="256" y="400" text-anchor="middle" font-family="'SF Pro Display', 'Inter', system-ui, sans-serif" font-size="34" font-weight="600" letter-spacing="8" fill="white" opacity="0.9">STAFFIX</text>
</svg>