<svg width="512" height="512" viewBox="0 0 512 512" fill="none" xmlns="http://www.w3.org/2000/svg">
  <defs>
    <linearGradient id="bg18" x1="0" y1="0" x2="512" y2="512" gradientUnits="userSpaceOnUse">
      <stop offset="0%" stop-color="#0B091E"/>
      <stop offset="100%" stop-color="#181340"/>
    </linearGradient>
    <linearGradient id="circuit18" x1="150" y1="100" x2="370" y2="320" gradientUnits="userSpaceOnUse">
      <stop offset="0%" stop-color="#C084FC"/>
      <stop offset="50%" stop-color="#818CF8"/>
      <stop offset="100%" stop-color="#60A5FA"/>
    </linearGradient>
    <radialGradient id="glow18" cx="256" cy="195" r="155" gradientUnits="userSpaceOnUse">
      <stop offset="0%" stop-color="#7C3AED" stop-opacity="0.12"/>
      <stop offset="100%" stop-color="#7C3AED" stop-opacity="0"/>
    </radialGradient>
  </defs>
  <rect width="512" height="512" rx="96" fill="url(#bg18)"/>
  <circle cx="256" cy="195" r="155" fill="url(#glow18)"/>

  <!-- Original brain shape -->
  <g transform="translate(76, 30) scale(15)" fill="none" stroke="#818CF8" stroke-width="1.3" stroke-linecap="round" stroke-linejoin="round" opacity="0.5">
    <path d="M12 18V5"/>
    <path d="M15 13a4.17 4.17 0 0 1-3-4 4.17 4.17 0 0 1-3 4"/>
    <path d="M17.598 6.5A3 3 0 1 0 12 5a3 3 0 1 0-5.598 1.5"/>
    <path d="M17.997 5.125a4 4 0 0 1 2.526 5.77"/>
    <path d="M18 18a4 4 0 0 0 2-7.464"/>
    <path d="M19.967 17.483A4 4 0 1 1 12 18a4 4 0 1 1-7.967-.517"/>
    <path d="M6 18a4 4 0 0 1-2-7.464"/>
    <path d="M6.003 5.125a4 4 0 0 0-2.526 5.77"/>
  </g>

  <!-- Dense circuit board traces inside brain — orthogonal paths -->
  <!-- Main horizontal bus -->
  <path d="M155 195 L210 195 L210 160 L256 160 L256 195 L302 195 L302 160 L358 160" stroke="url(#circuit18)" stroke-width="2" stroke-linecap="round" opacity="0.6"/>
  <!-- Secondary horizontal -->
  <path d="M170 235 L215 235 L215 255 L256 255 L256 235 L300 235 L300 255 L345 255" stroke="url(#circuit18)" stroke-width="1.8" stroke-linecap="round" opacity="0.45"/>
  <!-- Vertical buses -->
  <path d="M200 110 L200 145 L220 145 L220 195" stroke="url(#circuit18)" stroke-width="1.8" stroke-linecap="round" opacity="0.5"/>
  <path d="M312 110 L312 145 L292 145 L292 195" stroke="url(#circuit18)" stroke-width="1.8" stroke-linecap="round" opacity="0.5"/>
  <path d="M235 195 L235 235 L235 280" stroke="url(#circuit18)" stroke-width="1.5" stroke-linecap="round" opacity="0.4"/>
  <path d="M277 195 L277 235 L277 280" stroke="url(#circuit18)" stroke-width="1.5" stroke-linecap="round" opacity="0.4"/>
  <!-- Diagonal traces -->
  <path d="M180 135 L200 145" stroke="url(#circuit18)" stroke-width="1.5" opacity="0.4"/>
  <path d="M332 135 L312 145" stroke="url(#circuit18)" stroke-width="1.5" opacity="0.4"/>
  <path d="M235 280 L256 300 L277 280" stroke="url(#circuit18)" stroke-width="1.5" stroke-linecap="round" opacity="0.35"/>

  <!-- Circuit nodes — junction points -->
  <!-- Main junctions (large) -->
  <circle cx="256" cy="195" r="8" fill="#A78BFA"/>
  <circle cx="256" cy="195" r="16" fill="#A78BFA" opacity="0.1"/>
  <circle cx="256" cy="160" r="6" fill="#818CF8"/>
  <circle cx="256" cy="255" r="6" fill="#818CF8"/>

  <!-- Secondary junctions -->
  <circle cx="210" cy="195" r="5" fill="#60A5FA"/>
  <circle cx="302" cy="195" r="5" fill="#60A5FA"/>
  <circle cx="210" cy="160" r="4" fill="#818CF8" opacity="0.8"/>
  <circle cx="302" cy="160" r="4" fill="#818CF8" opacity="0.8"/>
  <circle cx="215" cy="235" r="4" fill="#A78BFA" opacity="0.7"/>
  <circle cx="300" cy="235" r="4" fill="#A78BFA" opacity="0.7"/>

  <!-- Tertiary junctions -->
  <circle cx="200" cy="145" r="3.5" fill="#60A5FA" opacity="0.7"/>
  <circle cx="312" cy="145" r="3.5" fill="#60A5FA" opacity="0.7"/>
  <circle cx="220" cy="145" r="3" fill="#818CF8" opacity="0.6"/>
  <circle cx="292" cy="145" r="3" fill="#818CF8" opacity="0.6"/>
  <circle cx="235" cy="280" r="3.5" fill="#C084FC" opacity="0.6"/>
  <circle cx="277" cy="280" r="3.5" fill="#C084FC" opacity="0.6"/>
  <circle cx="256" cy="300" r="4" fill="#C084FC" opacity="0.65"/>

  <!-- Edge nodes -->
  <circle cx="155" cy="195" r="3" fill="#60A5FA" opacity="0.5"/>
  <circle cx="358" cy="160" r="3" fill="#60A5FA" opacity="0.5"/>
  <circle cx="170" cy="235" r="3" fill="#818CF8" opacity="0.45"/>
  <circle cx="345" cy="255" r="3" fill="#818CF8" opacity="0.45"/>
  <circle cx="180" cy="135" r="3" fill="#A78BFA" opacity="0.5"/>
  <circle cx="332" cy="135" r="3" fill="#A78BFA" opacity="0.5"/>
  <circle cx="200" cy="110" r="3" fill="#60A5FA" opacity="0.5"/>
  <circle cx="312" cy="110" r="3" fill="#60A5FA" opacity="0.5"/>

  <!-- Tiny data sparks -->
  <circle cx="230" cy="170" r="2" fill="white" opacity="0.45"/>
  <circle cx="285" cy="175" r="1.5" fill="white" opacity="0.4"/>
  <circle cx="245" cy="245" r="2" fill="white" opacity="0.35"/>
  <circle cx="268" cy="218" r="1.5" fill="white" opacity="0.4"/>

  <!-- STAFFIX -->
  <text x="256" y="400" text-anchor="middle" font-family="'SF Pro Display', 'Inter', system-ui, sans-serif" font-size="38" font-weight="300" letter-spacing="12" fill="white" opacity="0.85">STAFFIX</text>
</svg>