<svg xmlns="http://www.w3.org/2000/svg" width="512" height="512" viewBox="0 0 512 512">
  <svg x="30" y="160" width="452" height="192" viewBox="-14 -14 488 188">
    <defs>
      <linearGradient id="g" x1="0" y1="0" x2="460" y2="0" gradientUnits="userSpaceOnUse">
        <stop offset="0%" stop-color="#3B82F6"/>
        <stop offset="100%" stop-color="#8B5CF6"/>
      </linearGradient>
    </defs>
    <path d="M 115 28 C 110 10, 82 2, 62 2 C 32 2, 10 18, 10 42 C 10 64, 32 74, 62 82 C 92 90, 118 98, 118 120 C 118 142, 92 157, 62 157 C 32 157, 10 143, 10 125" stroke="url(#g)" stroke-width="25" stroke-linecap="round" fill="none"/>
    <rect x="146" y="5" width="27" height="151" rx="2" fill="url(#g)"/>
    <rect x="146" y="5" width="92" height="27" rx="2" fill="url(#g)"/>
    <rect x="146" y="64" width="72" height="22" rx="2" fill="url(#g)"/>
    <line x1="218" y1="75" x2="244" y2="75" stroke="url(#g)" stroke-width="5" stroke-linecap="round"/>
    <circle cx="260" cy="75" r="13" fill="none" stroke="url(#g)" stroke-width="4"/>
    <circle cx="260" cy="75" r="4.5" fill="url(#g)"/>
    <line x1="292" y1="5" x2="450" y2="155" stroke="url(#g)" stroke-width="27"/>
    <line x1="450" y1="5" x2="292" y2="155" stroke="url(#g)" stroke-width="27"/>
  </svg>
</svg>