<svg width="160" height="120" viewBox="0 0 160 120" fill="none" xmlns="http://www.w3.org/2000/svg">
  <defs>
    <linearGradient id="bgv1" x1="30" y1="0" x2="130" y2="70" gradientUnits="userSpaceOnUse">
      <stop offset="0%" stop-color="#3B82F6"/>
      <stop offset="100%" stop-color="#9333EA"/>
    </linearGradient>
  </defs>
  <rect x="50" y="0" width="60" height="60" rx="14" fill="url(#bgv1)"/>
  <g transform="translate(62, 12) scale(1.5)" fill="none" stroke="white" stroke-width="1.6" stroke-linecap="round" stroke-linejoin="round">
    <path d="M12 18V5"/>
    <path d="M15 13a4.17 4.17 0 0 1-3-4 4.17 4.17 0 0 1-3 4"/>
    <path d="M17.598 6.5A3 3 0 1 0 12 5a3 3 0 1 0-5.598 1.5"/>
    <path d="M17.997 5.125a4 4 0 0 1 2.526 5.77"/>
    <path d="M18 18a4 4 0 0 0 2-7.464"/>
    <path d="M19.967 17.483A4 4 0 1 1 12 18a4 4 0 1 1-7.967-.517"/>
    <path d="M6 18a4 4 0 0 1-2-7.464"/>
    <path d="M6.003 5.125a4 4 0 0 0-2.526 5.77"/>
  </g>
  <text x="80" y="95" font-family="Inter, Arial, Helvetica, sans-serif" font-size="28" font-weight="700" fill="#FFFFFF" text-anchor="middle">Staffix</text>
</svg>
